<svg id="圖層_1" data-name="圖層 1" xmlns="http://www.w3.org/2000/svg" viewBox="0 0 460 100"><defs><style>.cls-1{fill:#2aa738;}.cls-2{fill:#fff;}.cls-3{fill:#00aae8;}.cls-4{fill:#339e39;}.cls-5{fill:#1c9fd6;}</style></defs><title>AP Memory Logo -all</title><path class="cls-1" d="M50.14,23.16A3.78,3.78,0,1,0,54,26.94h0A3.8,3.8,0,0,0,50.14,23.16Z"/><polygon class="cls-2" points="57.98 26.94 57.98 26.94 57.98 26.94 57.98 26.94"/><polygon class="cls-2" points="57.94 15.42 53.92 15.42 53.92 15.44 57.94 15.45 57.94 15.42"/><path class="cls-2" d="M58,27v0Z"/><polygon class="cls-2" points="53.96 26.94 53.96 26.94 53.96 26.94 53.96 26.94"/><path class="cls-2" d="M57.94,15.45h-4v4.71A7.75,7.75,0,1,0,58,27v0h0ZM54,26.94a3.82,3.82,0,1,1-3.82-3.78A3.8,3.8,0,0,1,54,26.94Z"/><path class="cls-1" d="M77.84,48.17a3.76,3.76,0,0,0-1.11-2.68A3.81,3.81,0,0,0,74,44.38h0a3.78,3.78,0,1,0,0,7.56h0A3.8,3.8,0,0,0,77.84,48.17Z"/><polygon class="cls-2" points="74.02 51.94 74.02 51.94 74.03 51.94 74.03 51.94 74.02 51.94 74.02 51.94"/><path class="cls-2" d="M80.91,51.86a7.63,7.63,0,0,0,1-3.68,7.72,7.72,0,0,0-2.28-5.5,7.84,7.84,0,0,0-5.53-2.29h0a7.81,7.81,0,0,0-7.83,7.75,7.64,7.64,0,0,0,2.28,5.5A7.83,7.83,0,0,0,74,55.93h0l15.33-.17v-4ZM70.22,48.15A3.79,3.79,0,0,1,74,44.38h0a3.81,3.81,0,0,1,2.69,1.11,3.76,3.76,0,0,1,1.11,2.68A3.8,3.8,0,0,1,74,51.94h0a3.79,3.79,0,0,1-3.8-3.79Z"/><path class="cls-1" d="M44.89,55.65a3.79,3.79,0,1,0,3.8,3.79A3.79,3.79,0,0,0,44.89,55.65Z"/><path class="cls-3" d="M89.38,51.77V21.6a6,6,0,0,0-5.89-6.13l-25.55,0,0,11.49h0v0h0a7.83,7.83,0,1,1-4-6.81V15.44l-30.65,0a6.06,6.06,0,0,0-5.89,6.18V72.34a6,6,0,0,0,5.89,6.13H48.73l0-12.24a7.68,7.68,0,0,1-3.81,1,7.79,7.79,0,1,1,7.8-7.79s0,0,0,.07h0l0,19H83.49a6,6,0,0,0,5.89-6.13V55.76l-15.33.17h0a7.83,7.83,0,0,1-5.53-2.29,7.64,7.64,0,0,1-2.28-5.5A7.81,7.81,0,0,1,74,40.39h0a7.84,7.84,0,0,1,5.53,2.29,7.72,7.72,0,0,1,2.28,5.5,7.63,7.63,0,0,1-1,3.68Z"/><polygon class="cls-2" points="48.73 78.48 50.73 78.47 51.67 78.47 48.73 78.47 48.73 78.48"/><path class="cls-2" d="M52.69,59.51h0s0,0,0-.07a7.8,7.8,0,1,0-7.8,7.79,7.68,7.68,0,0,0,3.81-1l0,12.24h4Zm-7.8,3.72a3.79,3.79,0,1,1,3.8-3.79A3.79,3.79,0,0,1,44.89,63.23Z"/><path class="cls-4" d="M132.93,49.54a14.23,14.23,0,0,0,3.61-.79,2.72,2.72,0,0,0,2-2.57,3,3,0,0,0-1.5-2.93,9.32,9.32,0,0,0-4.39-.81c-2.17,0-3.7.52-4.6,1.58a6.66,6.66,0,0,0-1.29,3.18H118a13.26,13.26,0,0,1,2.54-7.46q3.61-4.58,12.37-4.57A22.07,22.07,0,0,1,143,37.42q4.43,2.25,4.43,8.51V61.8q0,1.65.06,4a5.23,5.23,0,0,0,.54,2.42,3.22,3.22,0,0,0,1.34,1v1.34h-9.84a9.48,9.48,0,0,1-.57-2c-.11-.61-.19-1.31-.26-2.1A18.32,18.32,0,0,1,134.4,70a13,13,0,0,1-6.64,1.69A11.48,11.48,0,0,1,120,69a9.54,9.54,0,0,1-3.08-7.6q0-6.37,5-9.23a22,22,0,0,1,8-2.22Zm5.53,4.23a9.91,9.91,0,0,1-1.76.87,15,15,0,0,1-2.43.62l-2.06.38a13.4,13.4,0,0,0-4.15,1.24,4.11,4.11,0,0,0-2.14,3.84,4,4,0,0,0,1.3,3.35,5,5,0,0,0,3.18,1,9.38,9.38,0,0,0,5.46-1.72c1.67-1.14,2.53-3.22,2.6-6.25Z"/><path class="cls-4" d="M184.47,39.71q4.23,4.47,4.23,13.14,0,9.13-4.14,13.93a13.44,13.44,0,0,1-10.65,4.79,11.2,11.2,0,0,1-6.9-2.06,13.33,13.33,0,0,1-2.94-3.33v18h-8.95V36h8.66V41.1a14.78,14.78,0,0,1,3.13-3.55,11.54,11.54,0,0,1,7.22-2.32A13.69,13.69,0,0,1,184.47,39.71Zm-6.95,6.5a6.44,6.44,0,0,0-6-3.08,6.81,6.81,0,0,0-6.83,4.67,17.53,17.53,0,0,0-1,6.28q0,6,3.24,8.48A7.43,7.43,0,0,0,171.54,64a6.62,6.62,0,0,0,5.82-2.92,13.5,13.5,0,0,0,2-7.78A13.49,13.49,0,0,0,177.52,46.21Z"/><path class="cls-5" d="M238.24,36.12a10.13,10.13,0,0,1,6,7.55,30.91,30.91,0,0,1,.32,5.11l-.07,21.81h-9.26v-22a7.3,7.3,0,0,0-.64-3.24c-.8-1.6-2.28-2.41-4.44-2.41A5.22,5.22,0,0,0,225,46a9.87,9.87,0,0,0-.73,4v20.6h-9.1V50a11.68,11.68,0,0,0-.64-4.48Q213.36,43,210,43c-2.59,0-4.32.83-5.21,2.5a9.65,9.65,0,0,0-.73,4.26V70.59h-9.17V36.06h8.79v5a14.56,14.56,0,0,1,3.17-3.84,10.9,10.9,0,0,1,6.83-2A10.76,10.76,0,0,1,220.12,37a10.1,10.1,0,0,1,3,4.15,11.55,11.55,0,0,1,4.41-4.47,13.53,13.53,0,0,1,6.22-1.43A12.08,12.08,0,0,1,238.24,36.12Z"/><path class="cls-5" d="M275.42,36.69a14.06,14.06,0,0,1,6,5.12A17,17,0,0,1,284.15,49a45.26,45.26,0,0,1,.3,6.87h-25.2q.21,5.2,3.62,7.3a9.16,9.16,0,0,0,5,1.3,7,7,0,0,0,6.88-4H284a11.37,11.37,0,0,1-3.36,6.26q-4.65,5-13,5a18.9,18.9,0,0,1-12.19-4.25q-5.28-4.26-5.28-13.85,0-9,4.77-13.79a16.67,16.67,0,0,1,12.37-4.8A19.75,19.75,0,0,1,275.42,36.69Zm-13.54,7.82a9.46,9.46,0,0,0-2.41,5.35h15.59a7.56,7.56,0,0,0-2.41-5.46,7.9,7.9,0,0,0-5.37-1.87A7.17,7.17,0,0,0,261.88,44.51Z"/><path class="cls-5" d="M332.19,36.12a10.13,10.13,0,0,1,6,7.55,31.13,31.13,0,0,1,.31,5.11l-.06,21.81h-9.27v-22a7.31,7.31,0,0,0-.63-3.24,4.54,4.54,0,0,0-4.45-2.41A5.2,5.2,0,0,0,318.92,46a9.71,9.71,0,0,0-.73,4v20.6h-9.11V50a11.72,11.72,0,0,0-.63-4.48Q307.3,43,304,43c-2.58,0-4.32.83-5.2,2.5a9.65,9.65,0,0,0-.73,4.26V70.59h-9.18V36.06h8.8v5a14.37,14.37,0,0,1,3.17-3.84,10.89,10.89,0,0,1,6.82-2A10.74,10.74,0,0,1,314.06,37a10.12,10.12,0,0,1,3,4.15,11.42,11.42,0,0,1,4.41-4.47,13.47,13.47,0,0,1,6.22-1.43A12.12,12.12,0,0,1,332.19,36.12Z"/><path class="cls-5" d="M375.67,66.36q-4.38,5.4-13.3,5.4t-13.3-5.4a20.05,20.05,0,0,1-4.38-13,20.16,20.16,0,0,1,4.38-13q4.38-5.49,13.3-5.49t13.3,5.49a20.16,20.16,0,0,1,4.38,13A20.05,20.05,0,0,1,375.67,66.36Zm-7.24-5c1.42-1.88,2.13-4.56,2.13-8s-.71-6.14-2.13-8a8,8,0,0,0-12.2,0q-2.14,2.79-2.14,8c0,3.46.71,6.14,2.14,8a8,8,0,0,0,12.2,0Z"/><path class="cls-5" d="M405.74,35.18l.78,0V44.5c-.57-.07-1.08-.11-1.53-.13l-1.07,0q-5.46,0-7.34,3.55a14,14,0,0,0-1,6.16V70.59h-9.11V36h8.63v6a19.34,19.34,0,0,1,3.65-4.73,10,10,0,0,1,6.6-2.12Z"/><path class="cls-5" d="M413.18,77.22l1.15.06a14,14,0,0,0,2.53-.09,4.63,4.63,0,0,0,2-.73,4.91,4.91,0,0,0,1.47-2.25,5.49,5.49,0,0,0,.59-2.1L408.25,36h10.06l7.55,25.52L433,36h9.62L430.76,70q-3.43,9.84-5.44,12.2c-1.33,1.58-4,2.36-8,2.36h-1.93c-.49,0-1.22,0-2.2-.11Z"/></svg>